<?xml version="1.0" encoding="UTF-8"?>
<svg id="Layer_2" data-name="Layer 2" xmlns="http://www.w3.org/2000/svg" xmlns:xlink="http://www.w3.org/1999/xlink" viewBox="0 0 268.3 354">
  <defs>
    <linearGradient id="New_Gradient_Swatch" data-name="New Gradient Swatch" x1="0" y1="177" x2="268.3" y2="177" gradientUnits="userSpaceOnUse">
      <stop offset="0" stop-color="#ffeea6"/>
      <stop offset="0" stop-color="#f5eca5"/>
      <stop offset=".2" stop-color="#dbe7a5"/>
      <stop offset=".4" stop-color="#b2e0a4"/>
      <stop offset=".6" stop-color="#78d6a2"/>
      <stop offset=".9" stop-color="#2fcaa0"/>
      <stop offset="1" stop-color="#0cc4a0"/>
    </linearGradient>
  </defs>
  <g id="Layer_1-2" data-name="Layer 1">
    <g>
      <path d="m83.3,70.8c0-20,12.3-40.3,30.2-49.4-1.6-1.9-2.5-4.2-2.5-6.5,0-7.9,10.4-14.3,23.2-14.3s23.2,6.4,23.2,14.3-.9,4.6-2.5,6.5c17.9,9.1,30.2,29.4,30.2,49.4,2.6,1.5,3.9,7.6,3,14.7-1,7.6-4.3,13.5-7.4,13.5v13.7c0,2.7-.3,5.3-.9,7.9,12.5,4,24.7,9.6,35.8,16.6,8,4.6,12.5,12.5,14.9,21.2,5.2,19.5,6,39.3,3.8,59.3-.7,7.9-3.7,14.1-9,19.8-4.2,5-8.6,9.9-13.4,14.4,6.4-4.6,13.9-7.5,21.9-7.5s19.2,3.8,25.7,11.6c5.2,6.1,8.5,14.5,8.5,22.6s-3.3,16.1-9.1,23.2c0,0-.1.2-.2.2-71,68.9-177.8,68.9-248.8,0,0,0-.1-.1-.2-.2-5.8-7.1-9.1-13.9-9.1-23.2s3.3-16.4,8.5-22.6c6.6-7.8,15.6-11.6,25.7-11.6s15.5,2.9,21.9,7.5c-4.8-4.4-9.2-9.3-13.4-14.4-5.3-5.8-8.4-12-9-19.8-2.2-20-1.4-39.8,3.8-59.3,2.3-8.7,6.9-16.6,14.9-21.2,11.1-7,23.3-12.5,35.8-16.6-.6-2.6-.9-5.3-.9-7.9v-13.7c-3.1,0-6.3-5.9-7.3-13.5-.9-7,.4-13.1,2.9-14.6m50.9,173.7c-8.5,0-15.4,4.9-15.4,10.9s6.9,10.9,15.4,10.9,15.4-4.9,15.4-10.9-6.9-10.9-15.4-10.9m8.8,48.6c-1.8,0-3.3,1.5-3.3,3.3s1.5,3.3,3.3,3.3h32c1.8,0,3.3-1.5,3.3-3.3s-1.5-3.3-3.3-3.3h-32Zm-48.5,0c-1.8,0-3.3,1.5-3.3,3.3s1.5,3.3,3.3,3.3,3.3-1.5,3.3-3.3-1.5-3.3-3.3-3.3m45.2,51.6c1.2,0,2.2-.8,2.5-2,.3-1.2-.1-2.4-1.2-3-1.4-.9-2.7-2-3.9-3.2-4.4-4.5-6.9-10.9-6.9-17.2s.3-3.9.8-5.9c.2-.8,0-1.7-.5-2.4-.5-.7-1.3-1.1-2.2-1.1h-32.8c-1,0-1.8.4-2.3,1.2-2.2,3.3-3.2,7.3-3.2,11.2,0,9.9,6.4,17.4,15.9,19.7,0,0,0,0,.2,0,11.1,2.1,22.3,2.9,33.6,2.5m-71.8-118.4c-.9,0-1.7.4-2.3,1.2-.5.8-.6,1.7-.3,2.5l20,52.8c.4,1.1,1.4,1.8,2.6,1.8h92.5c1.2,0,2.2-.7,2.6-1.8l20-52.8c.3-.9.2-1.8-.3-2.5-.5-.8-1.3-1.2-2.3-1.2H67.9Zm-2.4-7.9c-.4.7-.3,1.4.2,2,.5.6,1.3,1,2.3,1h132.3c.9,0,1.8-.3,2.3-1,.5-.6.6-1.4.3-2l-.5-.9c-.4-.8-1.4-1.3-2.5-1.3H68.5c-1.1,0-2.1.5-2.5,1.3l-.5.9Zm23.3,71.7c-1.5,0-2.7,1.2-2.7,2.7v7.3c0,1.5,1.2,2.7,2.7,2.7h90.8c1.5,0,2.7-1.2,2.7-2.7v-7.3c0-1.5-1.2-2.7-2.7-2.7h-90.8Zm35.9-80.1c26.6-19.5,46.9-46.6,58-77.7,1-2.7-.4-4-3-4.8-.6-.2-1.3-.4-1.9-.6-7.1,17.8-25.9,32-42.4,40.6-.8.4-1.7.4-2.5,0-16.5-8.6-35.3-22.7-42.4-40.6-1.4.3-3.2.7-4.2,1.8-1,1-1,2.4-.7,3.7,8.6,24.1,22.8,45.9,41.3,63.6.6.6.9,1.3.8,2.1,0,.8-.4,1.5-1,2-2.1,1.7-4.2,3.3-6.4,4.9,0,0-.1.1-.2.2-.7.6-1.1,1.5-1.1,2.5,0,1.8,1.5,3.3,3.3,3.3s1.5-.3,2.1-.8c0,0,.1,0,.2-.1" fill="none" fill-rule="evenodd" stroke="url(#New_Gradient_Swatch)" stroke-miterlimit="10"/>
      <path d="m174,79.7c-2.1.2-4.3.4-6.4.4-19.4,0-36.4-9.2-47.5-25.1-6.3,9.8-14.6,15.7-25.9,18.4,0,.3,0,.7,0,1v26.4c3.1,10.1,10.2,31,22.4,33,5.9,1,11.5-2.7,15.6-6.6,1.1-1,2.7-1,3.7,0,4.2,3.8,9.7,7.5,15.6,6.6,12.1-2,19.2-22.7,22.4-32.8v-21.3Zm-58.9,27.3c-6.7,0-12.3-5-13-11.6,0-.4,0-.8.3-1.1.3-.3.6-.5,1-.5h23.3c.4,0,.8.2,1,.5.3.3.4.7.3,1.1-.8,6.6-6.4,11.6-13,11.6Zm34.5,13.3c-4.5,3.6-9.7,5.4-15.5,5.1-5.8.2-11-1.5-15.5-5.1-.4-.3-.6-.9-.5-1.4.1-.5.5-.9,1.1-1,2.4-.4,4.7-1.4,7-2.2,2.7-1,5-1.5,7.9-1.4,2.9-.1,5.2.4,7.9,1.4,2.3.9,4.6,1.8,7,2.2.5,0,.9.5,1.1,1,.1.5,0,1.1-.5,1.4Zm3.4-13.3c-6.7,0-12.3-5-13-11.6,0-.4,0-.8.3-1.1.3-.3.6-.5,1-.5h23.3c.4,0,.8.2,1,.5.3.3.4.7.3,1.1-.8,6.6-6.4,11.6-13,11.6Z" fill="#333" fill-rule="evenodd"/>
    </g>
  </g>
</svg>